<?xml version="1.0" encoding="utf-8"?>
<!-- Generator: Adobe Illustrator 26.0.3, SVG Export Plug-In . SVG Version: 6.00 Build 0)  -->
<svg version="1.1" id="Layer_1" xmlns="http://www.w3.org/2000/svg" xmlns:xlink="http://www.w3.org/1999/xlink" x="0px" y="0px"
	 viewBox="0 0 360 100" style="enable-background:new 0 0 360 100;" xml:space="preserve">
<style type="text/css">
	
		.st0{clip-path:url(#SVGID_00000034082934284433950370000015376059277378565504_);fill-rule:evenodd;clip-rule:evenodd;fill:#E5007D;}
	
		.st1{clip-path:url(#SVGID_00000034082934284433950370000015376059277378565504_);fill-rule:evenodd;clip-rule:evenodd;fill:#FFFFFF;}
	.st2{clip-path:url(#SVGID_00000034082934284433950370000015376059277378565504_);fill:#FFFFFF;}
</style>
<g>
	<g>
		<defs>
			<rect id="SVGID_1_" x="84.4" y="-85.2" width="191.2" height="270.4"/>
		</defs>
		<clipPath id="SVGID_00000113322995759776675580000001909150513309913260_">
			<use xlink:href="#SVGID_1_"  style="overflow:visible;"/>
		</clipPath>
		
			<path style="clip-path:url(#SVGID_00000113322995759776675580000001909150513309913260_);fill-rule:evenodd;clip-rule:evenodd;fill:#E5007D;" d="
			M151,1.2h58.4c7.7,0,14,6.3,14,14v69.8c0,7.7-6.3,14-14,14H151c-7.7,0-14-6.3-14-14V15.1C137,7.4,143.3,1.2,151,1.2"/>
		
			<polygon style="clip-path:url(#SVGID_00000113322995759776675580000001909150513309913260_);fill-rule:evenodd;clip-rule:evenodd;fill:#FFFFFF;" points="
			223.4,57.6 223.4,58.7 219.1,58.7 217.7,56.7 215.4,58.8 213.8,58.8 213.6,54.4 213,60.1 210.1,57.9 208.3,58.8 205.2,58.8 
			204,56.7 202.4,58 196.2,58 194.7,58.9 193,58.8 191.6,56.9 189.6,58.8 187.7,58.8 187.7,57.1 186.7,60.8 184.8,56.9 180.5,57.7 
			180,45 178.9,51.6 178.4,51.6 177.8,45.3 175.8,55.6 170.2,50.1 166,62.6 165.2,62.6 160.3,53.4 155,58 151,48.4 146,60.8 
			141.4,52.4 137,59.6 137,57.3 140.9,50.6 142.3,50.6 146,57.1 150.8,44.7 151.6,44.6 156,55.7 161,51.3 165.3,59.6 169.4,47.8 
			175.1,53.3 178.2,37.1 178.5,37.1 178.9,44.6 180.3,37.1 180.6,37.1 181.6,56.4 185.4,55.6 186.4,57.6 189,49.9 188.9,57.3 
			191.7,55.1 193.7,57.5 194.7,57.5 196,56.9 202,56.9 204.2,55 206,57.7 208,57.7 210.3,56.4 212.1,57.9 213.3,45.9 214.2,45.9 
			214.9,57.7 215,57.7 217.9,54.9 219.7,57.6 		"/>
		
			<rect x="136.1" y="80.3" style="clip-path:url(#SVGID_00000113322995759776675580000001909150513309913260_);fill-rule:evenodd;clip-rule:evenodd;fill:#FFFFFF;" width="87.8" height="1.8"/>
		
			<rect x="137" y="80.3" style="clip-path:url(#SVGID_00000113322995759776675580000001909150513309913260_);fill-rule:evenodd;clip-rule:evenodd;fill:#FFFFFF;" width="86.4" height="1.8"/>
		<polygon style="clip-path:url(#SVGID_00000113322995759776675580000001909150513309913260_);fill:#FFFFFF;" points="144.9,91.1 
			144,91.1 143.8,88.6 142.6,91.1 141.7,91.1 141.2,87.2 142.1,87.2 142.4,89.8 143.6,87.2 144.5,87.2 144.6,89.8 145.8,87.2 
			146.8,87.2 		"/>
		<path style="clip-path:url(#SVGID_00000113322995759776675580000001909150513309913260_);fill:#FFFFFF;" d="M149.5,88.8
			c0,0,0-0.1,0-0.1c0-0.3-0.1-0.5-0.2-0.7c-0.1-0.1-0.3-0.2-0.5-0.2c-0.2,0-0.4,0.1-0.6,0.2c-0.2,0.2-0.3,0.4-0.3,0.7H149.5z
			 M150.3,89.5h-2.6c0,0,0,0.1,0,0.1c0,0.3,0.1,0.5,0.2,0.6c0.1,0.2,0.3,0.2,0.5,0.2c0.3,0,0.6-0.2,0.8-0.5l0.9,0.2
			c-0.2,0.4-0.4,0.7-0.7,0.8c-0.3,0.2-0.6,0.3-1,0.3c-0.5,0-0.9-0.2-1.2-0.5c-0.3-0.3-0.5-0.8-0.5-1.3c0-0.5,0.1-1,0.4-1.4
			c0.4-0.6,1-0.8,1.7-0.8c0.5,0,0.8,0.1,1.1,0.4c0.3,0.3,0.4,0.7,0.4,1.2C150.4,89,150.4,89.2,150.3,89.5z"/>
		<path style="clip-path:url(#SVGID_00000113322995759776675580000001909150513309913260_);fill:#FFFFFF;" d="M155.3,89.6l1,0.2
			c-0.2,0.5-0.4,0.8-0.7,1c-0.3,0.2-0.7,0.4-1.1,0.4c-0.5,0-0.9-0.1-1.1-0.4c-0.3-0.3-0.4-0.7-0.4-1.2c0-0.4,0.1-0.8,0.3-1.2
			c0.2-0.4,0.4-0.7,0.8-0.9c0.3-0.2,0.7-0.3,1.1-0.3c0.4,0,0.8,0.1,1.1,0.4c0.3,0.2,0.4,0.6,0.4,0.9l-1,0.1c0-0.2-0.1-0.4-0.2-0.5
			c-0.1-0.1-0.2-0.2-0.4-0.2c-0.2,0-0.4,0.1-0.6,0.2c-0.2,0.2-0.3,0.4-0.4,0.7c-0.1,0.3-0.1,0.6-0.1,0.8c0,0.2,0.1,0.4,0.2,0.5
			c0.1,0.1,0.2,0.2,0.4,0.2c0.2,0,0.3-0.1,0.5-0.2C155.1,90,155.2,89.8,155.3,89.6"/>
		<path style="clip-path:url(#SVGID_00000113322995759776675580000001909150513309913260_);fill:#FFFFFF;" d="M159.2,89.2
			c-0.1,0-0.1,0-0.2,0c-0.5,0.1-0.8,0.2-1,0.3c-0.1,0.1-0.2,0.2-0.2,0.4c0,0.1,0,0.2,0.1,0.3c0.1,0.1,0.2,0.1,0.3,0.1
			c0.2,0,0.3,0,0.4-0.1c0.1-0.1,0.2-0.2,0.3-0.3c0.1-0.1,0.1-0.3,0.2-0.6L159.2,89.2z M158.2,88.3l-1-0.1c0.1-0.3,0.3-0.6,0.6-0.8
			c0.3-0.2,0.7-0.3,1.1-0.3c0.5,0,0.8,0.1,1.1,0.3c0.2,0.2,0.3,0.4,0.3,0.7c0,0.1,0,0.2,0,0.4c0,0.1-0.1,0.5-0.2,1
			c-0.1,0.5-0.2,0.8-0.2,1c0,0.2,0,0.3,0.1,0.5h-1c0-0.1-0.1-0.3-0.1-0.4c-0.1,0.2-0.3,0.3-0.5,0.4c-0.2,0.1-0.4,0.1-0.6,0.1
			c-0.3,0-0.6-0.1-0.8-0.3c-0.2-0.2-0.3-0.5-0.3-0.8c0-0.4,0.1-0.7,0.3-0.9c0.2-0.2,0.6-0.4,1.2-0.4c0.5,0,0.8-0.1,1-0.1
			c0-0.1,0.1-0.3,0.1-0.3c0-0.1,0-0.2-0.1-0.3c-0.1-0.1-0.2-0.1-0.4-0.1c-0.2,0-0.3,0-0.4,0.1C158.3,88,158.2,88.1,158.2,88.3z"/>
		<path style="clip-path:url(#SVGID_00000113322995759776675580000001909150513309913260_);fill:#FFFFFF;" d="M161.6,87.2h1
			l-0.1,0.7c0.4-0.5,0.7-0.8,1.1-0.8c0.1,0,0.3,0,0.5,0.1l-0.4,0.9c-0.1,0-0.2-0.1-0.3-0.1c-0.2,0-0.4,0.1-0.5,0.2
			c-0.2,0.1-0.3,0.3-0.4,0.5c-0.1,0.2-0.2,0.6-0.3,1.1l-0.2,1.2h-1L161.6,87.2z"/>
		<path style="clip-path:url(#SVGID_00000113322995759776675580000001909150513309913260_);fill:#FFFFFF;" d="M166.5,88.8
			c0,0,0-0.1,0-0.1c0-0.3-0.1-0.5-0.2-0.7c-0.1-0.1-0.3-0.2-0.5-0.2c-0.2,0-0.4,0.1-0.6,0.2c-0.2,0.2-0.3,0.4-0.3,0.7H166.5z
			 M167.3,89.5h-2.6c0,0,0,0.1,0,0.1c0,0.3,0.1,0.5,0.2,0.6c0.1,0.2,0.3,0.2,0.5,0.2c0.3,0,0.6-0.2,0.8-0.5l0.9,0.2
			c-0.2,0.4-0.4,0.7-0.7,0.8c-0.3,0.2-0.6,0.3-1,0.3c-0.5,0-0.9-0.2-1.2-0.5c-0.3-0.3-0.5-0.8-0.5-1.3c0-0.5,0.1-1,0.4-1.4
			c0.4-0.6,1-0.8,1.7-0.8c0.5,0,0.8,0.1,1.1,0.4c0.3,0.3,0.4,0.7,0.4,1.2C167.4,89,167.4,89.2,167.3,89.5z"/>
		<path style="clip-path:url(#SVGID_00000113322995759776675580000001909150513309913260_);fill:#FFFFFF;" d="M172.1,89.2
			c-0.1,0-0.1,0-0.2,0c-0.5,0.1-0.8,0.2-1,0.3c-0.1,0.1-0.2,0.2-0.2,0.4c0,0.1,0,0.2,0.1,0.3c0.1,0.1,0.2,0.1,0.3,0.1
			c0.2,0,0.3,0,0.4-0.1c0.1-0.1,0.2-0.2,0.3-0.3c0.1-0.1,0.1-0.3,0.2-0.6L172.1,89.2z M171.2,88.3l-1-0.1c0.1-0.3,0.3-0.6,0.6-0.8
			c0.3-0.2,0.7-0.3,1.1-0.3c0.5,0,0.8,0.1,1.1,0.3c0.2,0.2,0.3,0.4,0.3,0.7c0,0.1,0,0.2,0,0.4c0,0.1-0.1,0.5-0.2,1
			c-0.1,0.5-0.2,0.8-0.2,1c0,0.2,0,0.3,0.1,0.5h-1c0-0.1-0.1-0.3-0.1-0.4c-0.1,0.2-0.3,0.3-0.5,0.4c-0.2,0.1-0.4,0.1-0.6,0.1
			c-0.3,0-0.6-0.1-0.8-0.3c-0.2-0.2-0.3-0.5-0.3-0.8c0-0.4,0.1-0.7,0.3-0.9c0.2-0.2,0.6-0.4,1.2-0.4c0.5,0,0.8-0.1,1-0.1
			c0-0.1,0.1-0.3,0.1-0.3c0-0.1,0-0.2-0.1-0.3c-0.1-0.1-0.2-0.1-0.4-0.1c-0.2,0-0.3,0-0.4,0.1C171.3,88,171.2,88.1,171.2,88.3z"/>
		<path style="clip-path:url(#SVGID_00000113322995759776675580000001909150513309913260_);fill:#FFFFFF;" d="M174.6,87.2h1
			l-0.1,0.5c0.2-0.2,0.5-0.4,0.7-0.5c0.2-0.1,0.4-0.1,0.7-0.1c0.3,0,0.6,0.1,0.7,0.3c0.2,0.2,0.3,0.4,0.3,0.7c0,0.1,0,0.4-0.1,0.8
			l-0.5,2.2h-1l0.5-2.2c0.1-0.3,0.1-0.5,0.1-0.6c0-0.1,0-0.2-0.1-0.3c-0.1-0.1-0.2-0.1-0.3-0.1c-0.2,0-0.3,0.1-0.5,0.2
			c-0.2,0.1-0.3,0.3-0.4,0.5c-0.1,0.2-0.2,0.5-0.3,0.9l-0.3,1.6h-1L174.6,87.2z"/>
		<path style="clip-path:url(#SVGID_00000113322995759776675580000001909150513309913260_);fill:#FFFFFF;" d="M179.4,89.5
			c0,0.3,0.1,0.5,0.2,0.6c0.1,0.2,0.3,0.2,0.5,0.2c0.2,0,0.4-0.1,0.5-0.2c0.2-0.1,0.3-0.3,0.4-0.6c0.1-0.3,0.1-0.5,0.1-0.8
			c0-0.3-0.1-0.5-0.2-0.7c-0.1-0.2-0.3-0.3-0.5-0.3c-0.3,0-0.6,0.2-0.7,0.5C179.5,88.7,179.4,89.1,179.4,89.5 M181.7,91.1h-1
			l0.1-0.4c-0.2,0.2-0.4,0.3-0.5,0.4c-0.2,0.1-0.4,0.1-0.6,0.1c-0.4,0-0.7-0.1-1-0.4c-0.2-0.3-0.4-0.7-0.4-1.2
			c0-0.6,0.2-1.2,0.5-1.7c0.3-0.5,0.8-0.8,1.4-0.8c0.5,0,0.9,0.2,1.2,0.6l0.4-2h1L181.7,91.1z"/>
		<path style="clip-path:url(#SVGID_00000113322995759776675580000001909150513309913260_);fill:#FFFFFF;" d="M185.8,89.4
			c0,0.3,0.1,0.5,0.2,0.7c0.1,0.2,0.3,0.2,0.5,0.2c0.2,0,0.4-0.1,0.5-0.2c0.2-0.1,0.3-0.3,0.4-0.6c0.1-0.3,0.1-0.5,0.1-0.7
			c0-0.3-0.1-0.5-0.2-0.7c-0.1-0.2-0.3-0.3-0.5-0.3c-0.2,0-0.4,0.1-0.5,0.2c-0.2,0.1-0.3,0.4-0.4,0.7
			C185.9,89,185.8,89.2,185.8,89.4 M184.6,91.3l1.1,0.2c0,0.1,0,0.2,0.1,0.3c0,0.1,0.1,0.1,0.2,0.1c0.1,0,0.2,0.1,0.3,0.1
			c0.2,0,0.4,0,0.6-0.1c0.1-0.1,0.2-0.2,0.3-0.3c0-0.1,0.1-0.3,0.2-0.6l0-0.2c-0.4,0.3-0.8,0.4-1.2,0.4c-0.4,0-0.7-0.1-0.9-0.4
			c-0.2-0.3-0.4-0.7-0.4-1.2c0-0.5,0.1-0.9,0.2-1.2c0.2-0.4,0.4-0.7,0.7-0.9c0.3-0.2,0.6-0.3,0.9-0.3c0.3,0,0.5,0.1,0.7,0.2
			c0.2,0.1,0.4,0.3,0.5,0.6l0.1-0.7h1l-0.6,3.2c-0.1,0.5-0.2,0.9-0.3,1.1c-0.1,0.2-0.2,0.4-0.3,0.5c-0.1,0.1-0.2,0.2-0.4,0.3
			c-0.1,0.1-0.3,0.2-0.5,0.2c-0.2,0-0.4,0.1-0.7,0.1c-0.5,0-0.9-0.1-1.2-0.3c-0.3-0.2-0.4-0.5-0.4-0.9
			C184.6,91.4,184.6,91.3,184.6,91.3z"/>
		<path style="clip-path:url(#SVGID_00000113322995759776675580000001909150513309913260_);fill:#FFFFFF;" d="M192.2,88.7
			c0-0.2-0.1-0.4-0.2-0.6c-0.1-0.1-0.3-0.2-0.5-0.2c-0.2,0-0.4,0.1-0.6,0.2c-0.2,0.1-0.3,0.3-0.4,0.6c-0.1,0.3-0.1,0.5-0.1,0.7
			c0,0.3,0.1,0.5,0.2,0.7c0.1,0.2,0.3,0.2,0.6,0.2c0.3,0,0.5-0.1,0.7-0.4C192.1,89.6,192.2,89.2,192.2,88.7 M189.3,89.5
			c0-0.7,0.2-1.3,0.6-1.7c0.4-0.4,0.9-0.6,1.6-0.6c0.6,0,1,0.2,1.3,0.5c0.3,0.3,0.5,0.7,0.5,1.3c0,0.6-0.2,1.2-0.6,1.6
			c-0.4,0.5-0.9,0.7-1.6,0.7c-0.4,0-0.7-0.1-0.9-0.2c-0.3-0.1-0.5-0.4-0.6-0.6C189.4,90,189.3,89.8,189.3,89.5z"/>
		<path style="clip-path:url(#SVGID_00000113322995759776675580000001909150513309913260_);fill:#FFFFFF;" d="M194.7,89.5
			c0,0.3,0.1,0.5,0.2,0.6c0.1,0.2,0.3,0.2,0.5,0.2c0.2,0,0.4-0.1,0.5-0.2c0.2-0.1,0.3-0.3,0.4-0.6c0.1-0.3,0.1-0.5,0.1-0.8
			c0-0.3-0.1-0.5-0.2-0.7c-0.1-0.2-0.3-0.3-0.5-0.3c-0.3,0-0.6,0.2-0.7,0.5C194.8,88.7,194.7,89.1,194.7,89.5 M197.1,91.1h-1
			l0.1-0.4c-0.2,0.2-0.4,0.3-0.5,0.4c-0.2,0.1-0.4,0.1-0.6,0.1c-0.4,0-0.7-0.1-1-0.4c-0.2-0.3-0.4-0.7-0.4-1.2
			c0-0.6,0.2-1.2,0.5-1.7c0.3-0.5,0.8-0.8,1.4-0.8c0.5,0,0.9,0.2,1.2,0.6l0.4-2h1L197.1,91.1z"/>
		<path style="clip-path:url(#SVGID_00000113322995759776675580000001909150513309913260_);fill:#FFFFFF;" d="M202.6,89.6l1,0.2
			c-0.2,0.5-0.4,0.8-0.7,1c-0.3,0.2-0.7,0.4-1.1,0.4c-0.5,0-0.9-0.1-1.1-0.4c-0.3-0.3-0.4-0.7-0.4-1.2c0-0.4,0.1-0.8,0.3-1.2
			c0.2-0.4,0.4-0.7,0.8-0.9c0.3-0.2,0.7-0.3,1.1-0.3c0.4,0,0.8,0.1,1.1,0.4c0.3,0.2,0.4,0.6,0.4,0.9l-1,0.1c0-0.2-0.1-0.4-0.2-0.5
			c-0.1-0.1-0.2-0.2-0.4-0.2c-0.2,0-0.4,0.1-0.6,0.2c-0.2,0.2-0.3,0.4-0.4,0.7c-0.1,0.3-0.1,0.6-0.1,0.8c0,0.2,0.1,0.4,0.2,0.5
			c0.1,0.1,0.2,0.2,0.4,0.2c0.2,0,0.3-0.1,0.5-0.2C202.4,90,202.5,89.8,202.6,89.6"/>
		<path style="clip-path:url(#SVGID_00000113322995759776675580000001909150513309913260_);fill:#FFFFFF;" d="M204.9,87.2h1
			l-0.5,2.3c-0.1,0.3-0.1,0.4-0.1,0.5c0,0.1,0,0.2,0.1,0.3c0.1,0.1,0.2,0.1,0.3,0.1c0.1,0,0.2,0,0.2-0.1c0.1,0,0.2-0.1,0.2-0.2
			c0.1-0.1,0.2-0.2,0.2-0.3c0.1-0.1,0.1-0.2,0.2-0.4c0-0.1,0.1-0.3,0.1-0.5l0.4-1.8h1l-0.9,3.9h-1l0.1-0.5c-0.4,0.4-0.8,0.6-1.3,0.6
			c-0.3,0-0.5-0.1-0.7-0.3c-0.2-0.2-0.2-0.4-0.2-0.7c0-0.1,0-0.4,0.1-0.8L204.9,87.2z"/>
		<path style="clip-path:url(#SVGID_00000113322995759776675580000001909150513309913260_);fill:#FFFFFF;" d="M209.3,87.2h1
			l-0.1,0.7c0.4-0.5,0.7-0.8,1.1-0.8c0.1,0,0.3,0,0.5,0.1l-0.4,0.9c-0.1,0-0.2-0.1-0.3-0.1c-0.2,0-0.4,0.1-0.5,0.2
			c-0.2,0.1-0.3,0.3-0.4,0.5c-0.1,0.2-0.2,0.6-0.3,1.1l-0.2,1.2h-1L209.3,87.2z"/>
		<path style="clip-path:url(#SVGID_00000113322995759776675580000001909150513309913260_);fill:#FFFFFF;" d="M214.2,88.8
			c0,0,0-0.1,0-0.1c0-0.3-0.1-0.5-0.2-0.7c-0.1-0.1-0.3-0.2-0.5-0.2c-0.2,0-0.4,0.1-0.6,0.2c-0.2,0.2-0.3,0.4-0.3,0.7H214.2z
			 M215.1,89.5h-2.6c0,0,0,0.1,0,0.1c0,0.3,0.1,0.5,0.2,0.6c0.1,0.2,0.3,0.2,0.5,0.2c0.3,0,0.6-0.2,0.8-0.5L215,90
			c-0.2,0.4-0.4,0.7-0.7,0.8c-0.3,0.2-0.6,0.3-1,0.3c-0.5,0-0.9-0.2-1.2-0.5c-0.3-0.3-0.5-0.8-0.5-1.3c0-0.5,0.1-1,0.4-1.4
			c0.4-0.6,1-0.8,1.7-0.8c0.5,0,0.8,0.1,1.1,0.4c0.3,0.3,0.4,0.7,0.4,1.2C215.2,89,215.1,89.2,215.1,89.5z"/>
		<path style="clip-path:url(#SVGID_00000113322995759776675580000001909150513309913260_);fill:#FFFFFF;" d="M215.3,90l1-0.2
			c0.1,0.2,0.2,0.4,0.3,0.5c0.1,0.1,0.3,0.1,0.5,0.1c0.2,0,0.4-0.1,0.6-0.2c0.1-0.1,0.1-0.2,0.1-0.3c0-0.1,0-0.1-0.1-0.2
			c-0.1-0.1-0.2-0.1-0.4-0.2c-0.6-0.2-1-0.4-1.1-0.5c-0.2-0.2-0.3-0.4-0.3-0.7c0-0.3,0.1-0.6,0.3-0.8c0.3-0.3,0.8-0.5,1.4-0.5
			c0.5,0,0.9,0.1,1.1,0.3c0.2,0.2,0.4,0.4,0.5,0.7l-0.9,0.2c0-0.1-0.1-0.2-0.2-0.3c-0.2-0.1-0.3-0.1-0.5-0.1c-0.2,0-0.4,0-0.5,0.1
			c-0.1,0.1-0.1,0.2-0.1,0.3c0,0.1,0,0.2,0.1,0.2c0.1,0,0.2,0.1,0.6,0.2c0.5,0.1,0.8,0.3,1,0.4c0.2,0.2,0.4,0.4,0.4,0.7
			c0,0.4-0.2,0.7-0.5,1c-0.3,0.3-0.7,0.4-1.3,0.4c-0.5,0-1-0.1-1.3-0.3C215.6,90.6,215.4,90.4,215.3,90"/>
		
			<polygon style="clip-path:url(#SVGID_00000113322995759776675580000001909150513309913260_);fill-rule:evenodd;clip-rule:evenodd;fill:#FFFFFF;" points="
			151.2,69.7 157.6,69.7 166,46.2 178.9,72.3 192.5,45.3 201.1,69.6 207,69.6 192.7,24.1 178.8,56.1 165.8,24.1 		"/>
	</g>
</g>
</svg>
